<svg width="387" height="256" viewBox="0 0 387 256" fill="none" xmlns="http://www.w3.org/2000/svg">
<rect x="0.6875" width="385.688" height="255.75" fill="url(#paint0_linear_6_388)"/>
<mask id="mask0_6_388" style="mask-type:alpha" maskUnits="userSpaceOnUse" x="0" y="0" width="387" height="256">
<rect x="0.6875" width="385.688" height="255.75" fill="#342858"/>
</mask>
<g mask="url(#mask0_6_388)">
<circle cx="307.682" cy="246.25" r="4.125" fill="#342858"/>
<circle cx="307.682" cy="223.844" r="4.125" fill="#342858"/>
<circle cx="300.682" cy="235.5" r="4.125" fill="#342858"/>
<circle cx="300.682" cy="190.125" r="4.125" fill="#342858"/>
<circle cx="294.276" cy="178.711" r="4.125" fill="#342858"/>
<circle cx="300.682" cy="257.563" r="4.125" fill="#342858"/>
<circle cx="334.057" cy="246.25" r="4.125" fill="#342858"/>
<circle cx="334.057" cy="223.844" r="4.125" fill="#342858"/>
<circle cx="334.057" cy="200.875" r="4.125" fill="#342858"/>
<circle cx="334.057" cy="156.125" r="4.125" fill="#342858"/>
<circle cx="334.057" cy="178.953" r="4.125" fill="#342858"/>
<circle cx="261.12" cy="167.297" r="4.125" fill="#342858"/>
<circle cx="241.338" cy="156.125" r="4.125" fill="#342858"/>
<circle cx="241.338" cy="134.063" r="4.125" fill="#342858"/>
<circle cx="241.505" cy="112.001" r="4.125" fill="#342858"/>
<circle cx="241.505" cy="89.9386" r="4.125" fill="#342858"/>
<circle cx="241.505" cy="66.1886" r="4.125" fill="#342858"/>
<circle cx="241.505" cy="44.0473" r="4.125" fill="#342858"/>
<circle cx="241.643" cy="20.875" r="4.125" fill="#342858"/>
<circle cx="241.297" cy="-1.125" r="4.125" fill="#342858"/>
<circle cx="234.891" cy="76.9076" r="4.125" fill="#342858"/>
<circle cx="234.891" cy="55.4696" r="4.125" fill="#342858"/>
<circle cx="234.749" cy="32.3281" r="4.125" fill="#342858"/>
<circle cx="234.749" cy="9.3125" r="4.125" fill="#342858"/>
<circle cx="248.12" cy="100.97" r="4.125" fill="#342858"/>
<circle cx="234.838" cy="145.094" r="4.125" fill="#342858"/>
<circle cx="234.838" cy="123.032" r="4.125" fill="#342858"/>
<circle cx="214.963" cy="134.063" r="4.125" fill="#342858"/>
<circle cx="215.046" cy="112.001" r="4.125" fill="#342858"/>
<circle cx="215.046" cy="89.9386" r="4.125" fill="#342858"/>
<circle cx="215.046" cy="66.1886" r="4.125" fill="#342858"/>
<circle cx="215.046" cy="44.0473" r="4.125" fill="#342858"/>
<circle cx="215.328" cy="20.875" r="4.125" fill="#342858"/>
<circle cx="214.885" cy="-1.125" r="4.125" fill="#342858"/>
<circle cx="208.432" cy="76.9076" r="4.125" fill="#342858"/>
<circle cx="208.432" cy="55.4696" r="4.125" fill="#342858"/>
<circle cx="208.404" cy="32.3281" r="4.125" fill="#342858"/>
<circle cx="208.404" cy="9.3125" r="4.125" fill="#342858"/>
<circle cx="221.661" cy="100.97" r="4.125" fill="#342858"/>
<circle cx="228.15" cy="156.125" r="4.125" fill="#342858"/>
<circle cx="221.65" cy="145.094" r="4.125" fill="#342858"/>
<circle cx="221.65" cy="123.032" r="4.125" fill="#342858"/>
<circle cx="208.462" cy="123.032" r="4.125" fill="#342858"/>
<circle cx="195.274" cy="123.032" r="4.125" fill="#342858"/>
<circle cx="201.775" cy="134.063" r="4.125" fill="#342858"/>
<circle cx="201.816" cy="112.001" r="4.125" fill="#342858"/>
<circle cx="201.816" cy="89.9386" r="4.125" fill="#342858"/>
<circle cx="201.816" cy="66.1886" r="4.125" fill="#342858"/>
<circle cx="201.816" cy="44.0473" r="4.125" fill="#342858"/>
<circle cx="202.171" cy="20.875" r="4.125" fill="#342858"/>
<circle cx="201.679" cy="-1.125" r="4.125" fill="#342858"/>
<circle cx="195.202" cy="76.9076" r="4.125" fill="#342858"/>
<circle cx="195.202" cy="55.4696" r="4.125" fill="#342858"/>
<circle cx="195.231" cy="32.3281" r="4.125" fill="#342858"/>
<circle cx="195.231" cy="9.3125" r="4.125" fill="#342858"/>
<circle cx="208.431" cy="100.97" r="4.125" fill="#342858"/>
<circle cx="188.587" cy="112.001" r="4.125" fill="#342858"/>
<circle cx="188.587" cy="89.9386" r="4.125" fill="#342858"/>
<circle cx="188.587" cy="66.1886" r="4.125" fill="#342858"/>
<circle cx="188.587" cy="44.0473" r="4.125" fill="#342858"/>
<circle cx="189.014" cy="20.875" r="4.125" fill="#342858"/>
<circle cx="188.473" cy="-1.125" r="4.125" fill="#342858"/>
<circle cx="181.973" cy="76.9076" r="4.125" fill="#342858"/>
<circle cx="181.973" cy="55.4696" r="4.125" fill="#342858"/>
<circle cx="182.059" cy="32.3281" r="4.125" fill="#342858"/>
<circle cx="182.059" cy="9.3125" r="4.125" fill="#342858"/>
<circle cx="195.202" cy="100.97" r="4.125" fill="#342858"/>
<circle cx="181.973" cy="100.97" r="4.125" fill="#342858"/>
<circle cx="327.057" cy="235.5" r="4.125" fill="#342858"/>
<circle cx="327.057" cy="190.125" r="4.125" fill="#342858"/>
<circle cx="327.057" cy="145.094" r="4.125" fill="#342858"/>
<circle cx="327.057" cy="257.563" r="4.125" fill="#342858"/>
<circle cx="327.057" cy="212.188" r="4.125" fill="#342858"/>
<circle cx="360.432" cy="246.25" r="4.125" fill="#342858"/>
<circle cx="360.432" cy="223.844" r="4.125" fill="#342858"/>
<circle cx="360.432" cy="200.875" r="4.125" fill="#342858"/>
<circle cx="360.432" cy="156.125" r="4.125" fill="#342858"/>
<circle cx="360.432" cy="178.953" r="4.125" fill="#342858"/>
<circle cx="287.495" cy="167.297" r="4.125" fill="#342858"/>
<circle cx="267.713" cy="156.125" r="4.125" fill="#342858"/>
<circle cx="274.354" cy="145.094" r="4.125" fill="#342858"/>
<circle cx="353.432" cy="235.5" r="4.125" fill="#342858"/>
<circle cx="353.432" cy="190.125" r="4.125" fill="#342858"/>
<circle cx="353.432" cy="257.563" r="4.125" fill="#342858"/>
<circle cx="353.432" cy="212.188" r="4.125" fill="#342858"/>
<circle cx="386.807" cy="246.25" r="4.125" fill="#342858"/>
<circle cx="386.807" cy="223.844" r="4.125" fill="#342858"/>
<circle cx="386.807" cy="200.875" r="4.125" fill="#342858"/>
<circle cx="379.807" cy="235.5" r="4.125" fill="#342858"/>
<circle cx="379.807" cy="190.125" r="4.125" fill="#342858"/>
<circle cx="379.807" cy="167.297" r="4.125" fill="#342858"/>
<circle cx="379.807" cy="257.563" r="4.125" fill="#342858"/>
<circle cx="379.807" cy="212.188" r="4.125" fill="#342858"/>
<circle cx="347.245" cy="246.25" r="4.125" fill="#342858"/>
<circle cx="347.245" cy="223.844" r="4.125" fill="#342858"/>
<circle cx="347.245" cy="200.875" r="4.125" fill="#342858"/>
<circle cx="347.245" cy="156.125" r="4.125" fill="#342858"/>
<circle cx="347.245" cy="178.953" r="4.125" fill="#342858"/>
<circle cx="274.307" cy="167.297" r="4.125" fill="#342858"/>
<circle cx="254.526" cy="156.125" r="4.125" fill="#342858"/>
<circle cx="254.734" cy="112.001" r="4.125" fill="#342858"/>
<circle cx="254.734" cy="89.9386" r="4.125" fill="#342858"/>
<circle cx="254.734" cy="66.1886" r="4.125" fill="#342858"/>
<circle cx="254.734" cy="44.0473" r="4.125" fill="#342858"/>
<circle cx="254.8" cy="20.875" r="4.125" fill="#342858"/>
<circle cx="254.503" cy="-1.125" r="4.125" fill="#342858"/>
<circle cx="248.12" cy="76.9076" r="4.125" fill="#342858"/>
<circle cx="248.12" cy="55.4696" r="4.125" fill="#342858"/>
<circle cx="247.921" cy="32.3281" r="4.125" fill="#342858"/>
<circle cx="247.921" cy="9.3125" r="4.125" fill="#342858"/>
<circle cx="261.349" cy="100.97" r="4.125" fill="#342858"/>
<circle cx="267.964" cy="112.001" r="4.125" fill="#342858"/>
<circle cx="267.964" cy="89.9386" r="4.125" fill="#342858"/>
<circle cx="267.964" cy="66.1886" r="4.125" fill="#342858"/>
<circle cx="267.964" cy="44.0473" r="4.125" fill="#342858"/>
<circle cx="267.957" cy="20.875" r="4.125" fill="#342858"/>
<circle cx="267.709" cy="-1.125" r="4.125" fill="#342858"/>
<circle cx="333.739" cy="-1.125" r="4.125" fill="#342858"/>
<circle cx="333.743" cy="20.875" r="4.125" fill="#342858"/>
<circle cx="333.042" cy="44.0473" r="4.125" fill="#342858"/>
<circle cx="333.042" cy="66.1886" r="4.125" fill="#342858"/>
<circle cx="261.35" cy="76.9076" r="4.125" fill="#342858"/>
<circle cx="261.35" cy="55.4696" r="4.125" fill="#342858"/>
<circle cx="261.093" cy="32.3281" r="4.125" fill="#342858"/>
<circle cx="261.093" cy="9.3125" r="4.125" fill="#342858"/>
<circle cx="274.579" cy="100.97" r="4.125" fill="#342858"/>
<circle cx="281.193" cy="112.001" r="4.125" fill="#342858"/>
<circle cx="281.193" cy="89.9386" r="4.125" fill="#342858"/>
<circle cx="281.193" cy="66.1886" r="4.125" fill="#342858"/>
<circle cx="281.193" cy="44.0473" r="4.125" fill="#342858"/>
<circle cx="281.114" cy="20.875" r="4.125" fill="#342858"/>
<circle cx="280.915" cy="-1.125" r="4.125" fill="#342858"/>
<circle cx="346.945" cy="-1.125" r="4.125" fill="#342858"/>
<circle cx="346.9" cy="20.875" r="4.125" fill="#342858"/>
<circle cx="346.271" cy="44.0473" r="4.125" fill="#342858"/>
<circle cx="346.271" cy="66.1886" r="4.125" fill="#342858"/>
<circle cx="274.579" cy="76.9076" r="4.125" fill="#342858"/>
<circle cx="274.579" cy="55.4696" r="4.125" fill="#342858"/>
<circle cx="274.266" cy="32.3281" r="4.125" fill="#342858"/>
<circle cx="274.266" cy="9.3125" r="4.125" fill="#342858"/>
<circle cx="340.127" cy="9.3125" r="4.125" fill="#342858"/>
<circle cx="340.127" cy="32.3281" r="4.125" fill="#342858"/>
<circle cx="340.725" cy="55.4696" r="4.125" fill="#342858"/>
<circle cx="287.808" cy="100.97" r="4.125" fill="#342858"/>
<circle cx="294.423" cy="112.001" r="4.125" fill="#342858"/>
<circle cx="294.423" cy="89.9386" r="4.125" fill="#342858"/>
<circle cx="294.423" cy="66.1886" r="4.125" fill="#342858"/>
<circle cx="294.423" cy="44.0473" r="4.125" fill="#342858"/>
<circle cx="294.271" cy="20.875" r="4.125" fill="#342858"/>
<circle cx="294.121" cy="-1.125" r="4.125" fill="#342858"/>
<circle cx="360.151" cy="-1.125" r="4.125" fill="#342858"/>
<circle cx="360.058" cy="20.875" r="4.125" fill="#342858"/>
<circle cx="359.5" cy="44.0473" r="4.125" fill="#342858"/>
<circle cx="287.809" cy="76.9076" r="4.125" fill="#342858"/>
<circle cx="287.809" cy="55.4696" r="4.125" fill="#342858"/>
<circle cx="287.438" cy="32.3281" r="4.125" fill="#342858"/>
<circle cx="287.438" cy="9.3125" r="4.125" fill="#342858"/>
<circle cx="353.3" cy="9.3125" r="4.125" fill="#342858"/>
<circle cx="353.3" cy="32.3281" r="4.125" fill="#342858"/>
<circle cx="353.954" cy="55.4696" r="4.125" fill="#342858"/>
<circle cx="301.038" cy="100.97" r="4.125" fill="#342858"/>
<circle cx="307.652" cy="112.001" r="4.125" fill="#342858"/>
<circle cx="307.652" cy="89.9386" r="4.125" fill="#342858"/>
<circle cx="307.652" cy="66.1886" r="4.125" fill="#342858"/>
<circle cx="307.652" cy="44.0473" r="4.125" fill="#342858"/>
<circle cx="307.429" cy="20.875" r="4.125" fill="#342858"/>
<circle cx="307.327" cy="-1.125" r="4.125" fill="#342858"/>
<circle cx="373.357" cy="-1.125" r="4.125" fill="#342858"/>
<circle cx="373.215" cy="20.875" r="4.125" fill="#342858"/>
<circle cx="372.729" cy="44.0473" r="4.125" fill="#342858"/>
<circle cx="301.038" cy="76.9076" r="4.125" fill="#342858"/>
<circle cx="301.038" cy="55.4696" r="4.125" fill="#342858"/>
<circle cx="300.61" cy="32.3281" r="4.125" fill="#342858"/>
<circle cx="300.61" cy="9.3125" r="4.125" fill="#342858"/>
<circle cx="366.472" cy="9.3125" r="4.125" fill="#342858"/>
<circle cx="366.472" cy="32.3281" r="4.125" fill="#342858"/>
<circle cx="367.183" cy="55.4696" r="4.125" fill="#342858"/>
<circle cx="320.881" cy="89.9386" r="4.125" fill="#342858"/>
<circle cx="320.881" cy="66.1886" r="4.125" fill="#342858"/>
<circle cx="320.881" cy="44.0473" r="4.125" fill="#342858"/>
<circle cx="320.586" cy="20.875" r="4.125" fill="#342858"/>
<circle cx="320.533" cy="-1.125" r="4.125" fill="#342858"/>
<circle cx="386.372" cy="20.875" r="4.125" fill="#342858"/>
<circle cx="314.267" cy="76.9076" r="4.125" fill="#342858"/>
<circle cx="314.267" cy="55.4696" r="4.125" fill="#342858"/>
<circle cx="313.783" cy="32.3281" r="4.125" fill="#342858"/>
<circle cx="313.783" cy="9.3125" r="4.125" fill="#342858"/>
<circle cx="379.645" cy="9.3125" r="4.125" fill="#342858"/>
<circle cx="327.496" cy="76.9076" r="4.125" fill="#342858"/>
<circle cx="327.496" cy="55.4696" r="4.125" fill="#342858"/>
<circle cx="326.955" cy="32.3281" r="4.125" fill="#342858"/>
<circle cx="326.955" cy="9.3125" r="4.125" fill="#342858"/>
<circle cx="175.358" cy="89.9386" r="4.125" fill="#342858"/>
<circle cx="175.358" cy="66.1886" r="4.125" fill="#342858"/>
<circle cx="175.358" cy="44.0473" r="4.125" fill="#342858"/>
<circle cx="175.856" cy="20.875" r="4.125" fill="#342858"/>
<circle cx="175.267" cy="-1.125" r="4.125" fill="#342858"/>
<circle cx="168.744" cy="76.9076" r="4.125" fill="#342858"/>
<circle cx="168.744" cy="55.4696" r="4.125" fill="#342858"/>
<circle cx="168.887" cy="32.3281" r="4.125" fill="#342858"/>
<circle cx="168.887" cy="9.3125" r="4.125" fill="#342858"/>
<circle cx="142.542" cy="9.3125" r="4.125" fill="#342858"/>
<circle cx="162.129" cy="89.9386" r="4.125" fill="#342858"/>
<circle cx="162.129" cy="66.1886" r="4.125" fill="#342858"/>
<circle cx="162.129" cy="44.0473" r="4.125" fill="#342858"/>
<circle cx="162.699" cy="20.875" r="4.125" fill="#342858"/>
<circle cx="162.061" cy="-1.125" r="4.125" fill="#342858"/>
<circle cx="135.648" cy="-1.125" r="4.125" fill="#342858"/>
<circle cx="149.542" cy="20.875" r="4.125" fill="#342858"/>
<circle cx="148.854" cy="-1.125" r="4.125" fill="#342858"/>
<circle cx="122.442" cy="-1.125" r="4.125" fill="#342858"/>
<circle cx="155.515" cy="76.9076" r="4.125" fill="#342858"/>
<circle cx="155.515" cy="55.4696" r="4.125" fill="#342858"/>
<circle cx="155.714" cy="32.3281" r="4.125" fill="#342858"/>
<circle cx="155.714" cy="9.3125" r="4.125" fill="#342858"/>
<circle cx="129.369" cy="9.3125" r="4.125" fill="#342858"/>
<circle cx="314.267" cy="100.97" r="4.125" fill="#342858"/>
<circle cx="248.026" cy="145.094" r="4.125" fill="#342858"/>
<circle cx="248.026" cy="123.032" r="4.125" fill="#342858"/>
<circle cx="228.15" cy="134.063" r="4.125" fill="#342858"/>
<circle cx="228.275" cy="112.001" r="4.125" fill="#342858"/>
<circle cx="228.275" cy="89.9386" r="4.125" fill="#342858"/>
<circle cx="228.275" cy="66.1886" r="4.125" fill="#342858"/>
<circle cx="228.275" cy="44.0473" r="4.125" fill="#342858"/>
<circle cx="228.485" cy="20.875" r="4.125" fill="#342858"/>
<circle cx="228.091" cy="-1.125" r="4.125" fill="#342858"/>
<circle cx="221.661" cy="76.9076" r="4.125" fill="#342858"/>
<circle cx="221.661" cy="55.4696" r="4.125" fill="#342858"/>
<circle cx="221.576" cy="32.3281" r="4.125" fill="#342858"/>
<circle cx="221.576" cy="9.3125" r="4.125" fill="#342858"/>
<circle cx="234.89" cy="100.97" r="4.125" fill="#342858"/>
<circle cx="340.245" cy="235.5" r="4.125" fill="#342858"/>
<circle cx="340.245" cy="190.125" r="4.125" fill="#342858"/>
<circle cx="340.245" cy="145.094" r="4.125" fill="#342858"/>
<circle cx="340.245" cy="257.563" r="4.125" fill="#342858"/>
<circle cx="340.245" cy="212.188" r="4.125" fill="#342858"/>
<circle cx="373.62" cy="246.25" r="4.125" fill="#342858"/>
<circle cx="373.62" cy="223.844" r="4.125" fill="#342858"/>
<circle cx="373.62" cy="200.875" r="4.125" fill="#342858"/>
<circle cx="373.62" cy="156.125" r="4.125" fill="#342858"/>
<circle cx="373.62" cy="178.953" r="4.125" fill="#342858"/>
<circle cx="300.682" cy="167.297" r="4.125" fill="#342858"/>
<circle cx="280.901" cy="156.125" r="4.125" fill="#342858"/>
<circle cx="287.542" cy="145.094" r="4.125" fill="#342858"/>
<circle cx="366.62" cy="235.5" r="4.125" fill="#342858"/>
<circle cx="366.62" cy="190.125" r="4.125" fill="#342858"/>
<circle cx="366.62" cy="257.563" r="4.125" fill="#342858"/>
<circle cx="366.62" cy="212.188" r="4.125" fill="#342858"/>
<circle cx="320.87" cy="246.25" r="4.125" fill="#342858"/>
<circle cx="320.87" cy="223.844" r="4.125" fill="#342858"/>
<circle cx="320.87" cy="200.875" r="4.125" fill="#342858"/>
<circle cx="320.87" cy="156.125" r="4.125" fill="#342858"/>
<circle cx="313.87" cy="235.5" r="4.125" fill="#342858"/>
<circle cx="313.87" cy="190.125" r="4.125" fill="#342858"/>
<circle cx="313.87" cy="145.094" r="4.125" fill="#342858"/>
<circle cx="313.87" cy="257.563" r="4.125" fill="#342858"/>
<circle cx="313.87" cy="212.188" r="4.125" fill="#342858"/>
</g>
<defs>
<linearGradient id="paint0_linear_6_388" x1="386.375" y1="127.875" x2="0.687496" y2="127.875" gradientUnits="userSpaceOnUse">
<stop stop-color="#251347"/>
<stop offset="1" stop-color="#1B1247"/>
</linearGradient>
</defs>
</svg>
